# xmcd CD database file
#
# Track frame offsets:
#	150
#	13433
#	24132
#	35451
#	48117
#	63057
#	78573
#	94006
#	109931
#	125237
#	138691
#	154071
#
# Disc length: 2745 seconds
#
# Revision: 1
# Processed by: cddbd v1.4PL0 Copyright (c) Steve Scherf et al.
# Submitted via: CDex 1.50
#
DISCID=9b0ab70c
DTITLE=Vivian - Alive
DYEAR=2003
DGENRE=CH Rock
TTITLE0=Gone
TTITLE1=We Are
TTITLE2=Shut Up
TTITLE3=Let You Down
TTITLE4=Walkin The Wire
TTITLE5=Scars
TTITLE6=Jade
TTITLE7=Easily
TTITLE8=Karma
TTITLE9=Getaway
TTITLE10=Rebound
TTITLE11=Alive
EXTD=YEAR: 2003
EXTT0=
EXTT1=
EXTT2=
EXTT3=
EXTT4=
EXTT5=
EXTT6=
EXTT7=
EXTT8=
EXTT9=
EXTT10=
EXTT11=
PLAYORDER=
